<svg width="10" height="12" viewBox="0 0 10 12" fill="none" xmlns="http://www.w3.org/2000/svg">
<g clip-path="url(#clip0_2_1578)">
<path d="M8.48292 0.933856C7.93862 0.302783 6.95472 0.0322266 5.69601 0.0322266H2.04288C1.91834 0.0322313 1.79789 0.0774268 1.70318 0.159688C1.60847 0.241948 1.54572 0.355879 1.5262 0.480995L0.00510693 10.2943C-0.0251274 10.4878 0.122177 10.663 0.31499 10.663H2.5703L3.13671 7.00852L3.11913 7.12296C3.15948 6.86464 3.37667 6.67411 3.63386 6.67411H4.70558C6.81097 6.67411 8.45952 5.80423 8.94108 3.28784C8.95538 3.21342 8.96776 3.14098 8.97847 3.07021C8.91769 3.03747 8.91769 3.03747 8.97847 3.07021C9.12187 2.14013 8.97749 1.50703 8.48292 0.933856Z" fill="#27346A"/>
<path d="M3.99968 2.73517C4.06133 2.7053 4.12877 2.68983 4.19706 2.68987H7.06104C7.40019 2.68987 7.71651 2.71232 8.00558 2.75964C8.08646 2.77276 8.16693 2.78843 8.24687 2.80661C8.36016 2.83204 8.47215 2.86317 8.58241 2.89987C8.72452 2.94815 8.85686 3.00437 8.97851 3.07021C9.12187 2.13978 8.97749 1.50703 8.48292 0.933856C7.93831 0.302783 6.95472 0.0322266 5.69601 0.0322266H2.04257C1.78534 0.0322266 1.56651 0.222717 1.5262 0.480995L0.00510714 10.2939C-0.0251272 10.4877 0.122177 10.6627 0.314677 10.6627H2.5703L3.74542 3.08245C3.75697 3.00794 3.78615 2.93741 3.83044 2.87691C3.87473 2.81642 3.93281 2.76777 3.99968 2.73517Z" fill="#27346A"/>
<path d="M8.94129 3.28794C8.45973 5.80397 6.81121 6.67421 4.70578 6.67421H3.63375C3.37656 6.67421 3.15934 6.86474 3.11938 7.12305L2.41473 11.667C2.3884 11.8363 2.51715 11.9898 2.68559 11.9898H4.58676C4.69566 11.9897 4.80099 11.9502 4.88378 11.8782C4.96658 11.8063 5.02142 11.7066 5.03844 11.5972L5.05695 11.4986L5.41527 9.1886L5.43836 9.06093C5.45538 8.95152 5.51021 8.85187 5.593 8.77991C5.67579 8.70795 5.7811 8.66839 5.89 8.66835H6.17453C8.01621 8.66835 9.45828 7.90727 9.87969 5.7061C10.0556 4.78623 9.96457 4.01823 9.49926 3.47879C9.35813 3.3154 9.18285 3.18046 8.97867 3.07031C8.96762 3.14144 8.95563 3.21352 8.94129 3.28794Z" fill="#2790C3"/>
<path d="M8.47469 2.86593C8.3996 2.84363 8.32381 2.82388 8.24743 2.80672C8.16745 2.78884 8.08699 2.77328 8.00614 2.76008C7.71676 2.71243 7.40067 2.68994 7.06121 2.68994H4.19758C4.12924 2.68978 4.06175 2.7054 4.0002 2.7356C3.93326 2.7681 3.87511 2.81672 3.8308 2.87723C3.78649 2.93774 3.75735 3.00833 3.7459 3.08288L3.13723 7.00863L3.11965 7.12307C3.15969 6.86475 3.37688 6.67422 3.6341 6.67422H4.70614C6.81153 6.67422 8.46004 5.80434 8.9416 3.28796C8.95594 3.21353 8.96797 3.14141 8.97903 3.07033C8.85707 3.00484 8.72508 2.94826 8.58293 2.9003C8.54706 2.8882 8.51099 2.87675 8.47473 2.86593" fill="#1F264F"/>
</g>
<defs>
<clipPath id="clip0_2_1578">
<rect width="10" height="12" fill="white"/>
</clipPath>
</defs>
</svg>
